<svg width="615" height="512" viewBox="0 0 615 512" xmlns="http://www.w3.org/2000/svg">
  <path id="test" d="M307.628 512H306.857C303.788 512.002 300.794 511.068 298.291 509.325C290.117 503.604 96.1224 368.021 24.6578 253.607L24.3763 253.139C8.40859 227.137 -0.0193997 197.358 3.35307e-05 167.008C3.35307e-05 74.8923 76.4574 2.39255e-05 170.414 2.39255e-05C197.009 -0.0139309 223.237 6.07679 246.999 17.7844C270.761 29.4919 291.395 46.4909 307.249 67.4199C323.102 46.4956 343.733 29.4996 367.489 17.7923C391.246 6.08505 417.469 -0.00830014 444.06 2.39255e-05C538.004 2.39255e-05 614.4 74.8923 614.4 167.032C614.424 197.382 605.996 227.163 590.024 253.163C589.939 253.324 589.845 253.481 589.742 253.631C518.339 368.009 324.381 503.604 316.158 509.325C313.658 511.073 310.662 512.008 307.592 512H307.628Z"/>
</svg>
