<svg width="593" height="512" viewBox="0 0 593 512" xmlns="http://www.w3.org/2000/svg">
    <path id="svg-heart-b" d="M296.834 512H296.09C293.129 512.002 290.24 511.068 287.825 509.325C279.937 503.604 92.7497 368.021 23.7926 253.607L23.521 253.139C8.11355 227.137 -0.018719 197.358 3.23544e-05 167.008C3.23544e-05 74.8923 73.7747 2.39255e-05 164.434 2.39255e-05C190.096 -0.0139309 215.404 6.07679 238.332 17.7844C260.857 29.2859 280.469 45.8942 295.656 66.3185C296.06 66.8617 296.876 66.8618 297.28 66.3186C312.467 45.8989 332.075 29.2935 354.595 17.7923C377.518 6.08505 402.821 -0.00830014 428.479 2.39255e-05C519.126 2.39255e-05 592.842 74.8923 592.842 167.032C592.866 197.382 584.733 227.163 569.321 253.163C569.239 253.324 569.149 253.481 569.05 253.631C500.151 368.009 312.999 503.604 305.064 509.325C302.652 511.073 299.762 512.008 296.799 512H296.834Z" fill-opacity="0.1"/>
    <path id="svg-heart-m" d="M296.721 444.63H296.18C294.026 444.632 291.925 443.943 290.169 442.659C284.433 438.444 148.296 338.54 98.1455 254.236L97.948 253.891C86.7426 234.731 80.8282 212.789 80.8418 190.426C80.8418 122.551 134.496 67.3672 200.43 67.3672C219.093 67.3569 237.5 71.8448 254.174 80.4714C270.849 89.0981 285.329 101.624 296.455 117.045C307.58 101.627 322.058 89.1037 338.729 80.4773C355.4 71.8509 373.803 67.3611 392.463 67.3672C458.388 67.3672 512 122.551 512 190.444C512.017 212.807 506.102 234.75 494.894 253.909C494.834 254.027 494.768 254.142 494.696 254.253C444.588 338.531 308.477 438.444 302.707 442.659C300.952 443.947 298.85 444.636 296.696 444.63H296.721Z" fill-opacity="0.3"/>
    <path id="svg-heart-s" d="M296.646 390.735H296.24C294.625 390.737 293.049 390.245 291.732 389.328C287.429 386.316 185.327 314.957 147.714 254.739L147.566 254.493C139.162 240.807 134.726 225.134 134.736 209.161C134.736 160.679 174.977 121.262 224.428 121.262C238.425 121.254 252.23 124.46 264.736 130.622C277.242 136.784 288.102 145.731 296.446 156.746C304.79 145.733 315.648 136.788 328.152 130.626C340.655 124.464 354.457 121.257 368.452 121.262C417.896 121.262 458.105 160.679 458.105 209.174C458.118 225.147 453.682 240.821 445.275 254.506C445.23 254.59 445.181 254.673 445.127 254.752C407.546 314.95 305.463 386.316 301.135 389.328C299.819 390.247 298.243 390.74 296.627 390.735H296.646Z"/>
</svg>
