<svg width="2533" height="512" fill="none" xmlns="http://www.w3.org/2000/svg"><path d="m269.174 0 63.544 195.567h205.631L371.99 316.433 435.533 512 269.174 391.133 102.815 512l63.544-195.567L0 195.567h205.631L269.174 0Z" fill="#F2A84F"/><path d="M720.357 260.385V131.053h78.251v16.845h-58.689v36.409h16.665c12.8 0 22.823 1.63 30.069 4.891 7.366 3.26 12.559 7.728 15.577 13.404 3.14 5.555 4.71 11.955 4.71 19.2 0 7.97-1.691 14.854-5.072 20.65-3.26 5.796-8.453 10.264-15.578 13.404-7.124 3.019-16.483 4.529-28.076 4.529h-37.857Zm36.408-16.484c10.627 0 18.295-1.751 23.004-5.253 4.71-3.623 7.065-9.238 7.065-16.846 0-5.313-1.147-9.479-3.442-12.498-2.294-3.019-5.857-5.193-10.687-6.521-4.709-1.328-10.928-1.993-18.657-1.993h-14.129v43.111h16.846ZM909.114 260.385h-19.382v-82.237H862.2c-1.208 14.974-2.717 27.835-4.529 38.582-1.69 10.627-3.924 19.261-6.702 25.903-2.657 6.642-5.977 11.532-9.962 14.672-3.865 3.019-8.514 4.529-13.948 4.529-1.932 0-3.804-.182-5.615-.544-1.812-.241-3.381-.664-4.71-1.268V245.35c.846.242 1.751.483 2.717.725 1.087.12 2.174.181 3.261.181 2.415 0 4.589-.966 6.521-2.898 2.053-1.933 3.864-4.951 5.434-9.057 1.69-4.106 3.2-9.419 4.528-15.94 1.449-6.642 2.657-14.552 3.623-23.729 1.087-9.178 2.053-19.805 2.898-31.88h63.398v97.633ZM976.978 160.94c12.318 0 21.495 2.717 27.532 8.151 6.04 5.314 9.06 13.706 9.06 25.178v66.116h-13.587l-3.804-13.586h-.725c-2.777 3.502-5.675 6.4-8.694 8.695-2.899 2.294-6.28 3.985-10.144 5.072-3.744 1.086-8.332 1.63-13.766 1.63-5.797 0-11.05-1.027-15.759-3.079-4.589-2.174-8.212-5.435-10.869-9.782-2.656-4.468-3.985-10.023-3.985-16.664 0-9.903 3.744-17.45 11.231-22.643 7.608-5.192 19.14-8.03 34.597-8.513l16.665-.543v-5.435c0-7.245-1.631-12.317-4.891-15.215-3.261-2.898-7.849-4.347-13.767-4.347-5.071 0-9.902.724-14.49 2.173-4.589 1.449-8.937 3.2-13.042 5.253l-6.159-13.947c4.589-2.415 9.842-4.408 15.759-5.978 6.038-1.69 12.317-2.536 18.838-2.536Zm4.529 52.892c-11.11.483-18.839 2.355-23.186 5.616-4.226 3.139-6.34 7.607-6.34 13.404 0 5.072 1.51 8.755 4.529 11.049 3.139 2.294 7.064 3.442 11.774 3.442 7.607 0 13.887-2.114 18.838-6.34 4.951-4.227 7.427-10.566 7.427-19.02v-8.513l-13.042.362ZM1105.08 162.752v15.396h-42.75v82.237h-19.2v-97.633h61.95ZM1208.24 211.478c0 8.09-1.08 15.275-3.26 21.555-2.17 6.279-5.25 11.593-9.23 15.94-3.99 4.347-8.82 7.668-14.5 9.962-5.67 2.174-12.07 3.261-19.2 3.261-6.52 0-12.56-1.087-18.11-3.261-5.55-2.294-10.39-5.615-14.49-9.962-3.99-4.347-7.13-9.661-9.42-15.94-2.29-6.28-3.44-13.525-3.44-21.737 0-10.747 1.81-19.864 5.43-27.351 3.75-7.487 9.06-13.163 15.94-17.027 7.01-3.985 15.22-5.978 24.64-5.978 8.93 0 16.78 1.993 23.54 5.978 6.89 3.864 12.26 9.54 16.13 17.027 3.98 7.487 5.97 16.664 5.97 27.533Zm-71.91 0c0 7.245.91 13.524 2.72 18.838 1.81 5.192 4.65 9.177 8.51 11.955 3.87 2.777 8.82 4.166 14.86 4.166 6.03 0 10.98-1.389 14.85-4.166 3.86-2.778 6.7-6.763 8.51-11.955 1.81-5.314 2.72-11.593 2.72-18.838 0-7.487-.97-13.767-2.9-18.839-1.81-5.072-4.65-8.936-8.51-11.593-3.75-2.777-8.7-4.166-14.86-4.166-9.05 0-15.63 3.019-19.74 9.057-4.1 6.038-6.16 14.552-6.16 25.541ZM1302.18 178.148h-31.88v82.237h-19.02v-82.237h-31.7v-15.396h82.6v15.396ZM1402.17 187.567c0 5.918-1.81 10.627-5.43 14.129-3.5 3.381-8.21 5.676-14.13 6.883v.725c6.28.845 11.59 3.079 15.94 6.702 4.47 3.502 6.7 8.695 6.7 15.578 0 4.226-.78 8.091-2.35 11.592-1.57 3.502-3.99 6.582-7.25 9.238-3.26 2.536-7.48 4.529-12.68 5.978-5.07 1.328-11.23 1.993-18.47 1.993h-43.29v-97.633h43.29c7.12 0 13.52.785 19.2 2.354 5.67 1.57 10.14 4.167 13.4 7.789 3.38 3.623 5.07 8.514 5.07 14.672Zm-16.84 43.654c0-5.071-1.93-8.694-5.8-10.868-3.86-2.294-9.6-3.441-17.21-3.441h-21.91v28.982h22.28c7.12 0 12.68-1.087 16.66-3.261 3.99-2.294 5.98-6.098 5.98-11.412Zm-2.72-41.48c0-4.226-1.51-7.306-4.53-9.238-3.02-1.932-7.91-2.898-14.67-2.898h-23v24.635h20.1c7.25 0 12.74-.967 16.49-2.899 3.74-2.053 5.61-5.253 5.61-9.6ZM1514.44 211.478c0 8.09-1.08 15.275-3.26 21.555-2.17 6.279-5.25 11.593-9.24 15.94-3.98 4.347-8.81 7.668-14.49 9.962-5.67 2.174-12.07 3.261-19.2 3.261-6.52 0-12.56-1.087-18.11-3.261-5.56-2.294-10.39-5.615-14.49-9.962-3.99-4.347-7.13-9.661-9.42-15.94-2.3-6.28-3.44-13.525-3.44-21.737 0-10.747 1.81-19.864 5.43-27.351 3.75-7.487 9.06-13.163 15.94-17.027 7.01-3.985 15.22-5.978 24.64-5.978 8.93 0 16.78 1.993 23.54 5.978 6.89 3.864 12.26 9.54 16.13 17.027 3.98 7.487 5.97 16.664 5.97 27.533Zm-71.91 0c0 7.245.91 13.524 2.72 18.838 1.81 5.192 4.65 9.177 8.51 11.955 3.87 2.777 8.82 4.166 14.86 4.166 6.03 0 10.98-1.389 14.85-4.166 3.86-2.778 6.7-6.763 8.51-11.955 1.81-5.314 2.72-11.593 2.72-18.838 0-7.487-.97-13.767-2.9-18.839-1.81-5.072-4.65-8.936-8.51-11.593-3.75-2.777-8.7-4.166-14.86-4.166-9.05 0-15.63 3.019-19.74 9.057-4.11 6.038-6.16 14.552-6.16 25.541ZM1587.51 160.94c11.71 0 21.13 4.227 28.26 12.68 7.24 8.453 10.86 21.072 10.86 37.858 0 10.988-1.63 20.287-4.89 27.895-3.26 7.607-7.85 13.343-13.76 17.208-5.92 3.743-12.8 5.615-20.65 5.615-4.95 0-9.3-.604-13.04-1.811-3.75-1.329-6.95-3.019-9.6-5.072-2.54-2.174-4.77-4.468-6.71-6.884h-1.26c.36 2.174.66 4.77.9 7.789.24 2.899.36 5.495.36 7.789v39.85h-19.2V162.752h15.58l2.72 13.042h.9c1.94-2.657 4.23-5.133 6.89-7.427 2.65-2.295 5.85-4.106 9.6-5.434 3.74-1.329 8.09-1.993 13.04-1.993Zm-4.53 15.759c-6.04 0-10.87 1.208-14.49 3.623-3.62 2.294-6.28 5.796-7.97 10.506-1.57 4.589-2.42 10.445-2.54 17.57v2.898c0 7.487.79 13.888 2.36 19.201 1.57 5.192 4.16 9.178 7.79 11.955 3.74 2.657 8.81 3.985 15.21 3.985 5.44 0 9.84-1.449 13.23-4.347 3.5-3.019 6.09-7.185 7.78-12.499 1.7-5.313 2.54-11.472 2.54-18.476 0-10.626-1.93-19.019-5.8-25.178-3.86-6.158-9.9-9.238-18.11-9.238ZM1669.4 216.006c0 1.449-.06 3.321-.18 5.615-.12 2.295-.24 4.71-.36 7.246-.12 2.415-.3 4.709-.54 6.883-.12 2.053-.24 3.683-.36 4.891l50.17-77.889h23.37v97.633h-18.12v-51.987c0-2.294.06-5.132.18-8.513.13-3.381.25-6.642.37-9.782.24-3.26.42-5.736.54-7.426l-49.81 77.708h-23.55v-97.633h18.29v53.254ZM1843.12 178.148h-31.88v82.237h-19.02v-82.237h-31.7v-15.396h82.6v15.396ZM1898.77 160.94c8.58 0 15.94 1.812 22.1 5.434 6.16 3.502 10.87 8.574 14.13 15.216 3.38 6.642 5.07 14.491 5.07 23.548v10.506h-65.57c.24 10.023 2.84 17.691 7.79 23.004 5.07 5.313 12.14 7.97 21.19 7.97 6.28 0 11.84-.543 16.67-1.63 4.95-1.208 10.02-2.959 15.21-5.253v15.94a73.777 73.777 0 0 1-14.85 4.891c-4.95 1.086-10.87 1.63-17.75 1.63-9.42 0-17.75-1.872-25-5.615-7.24-3.744-12.92-9.299-17.03-16.665-3.98-7.487-5.97-16.665-5.97-27.533 0-10.989 1.81-20.287 5.43-27.895 3.74-7.608 8.88-13.404 15.4-17.389 6.64-4.106 14.37-6.159 23.18-6.159Zm0 14.854c-6.88 0-12.43 2.234-16.66 6.702-4.11 4.468-6.52 10.807-7.25 19.019h46.01c0-5.072-.78-9.54-2.35-13.404-1.57-3.864-3.99-6.883-7.25-9.057-3.26-2.174-7.42-3.26-12.5-3.26ZM2042.28 260.385h-19.38v-82.237h-27.53c-1.21 14.974-2.72 27.835-4.53 38.582-1.69 10.627-3.93 19.261-6.7 25.903-2.66 6.642-5.98 11.532-9.97 14.672-3.86 3.019-8.51 4.529-13.94 4.529-1.94 0-3.81-.182-5.62-.544-1.81-.241-3.38-.664-4.71-1.268V245.35c.85.242 1.75.483 2.72.725 1.09.12 2.17.181 3.26.181 2.41 0 4.59-.966 6.52-2.898 2.05-1.933 3.86-4.951 5.43-9.057 1.7-4.106 3.2-9.419 4.53-15.94 1.45-6.642 2.66-14.552 3.63-23.729 1.08-9.178 2.05-19.805 2.89-31.88h63.4v97.633ZM2117.39 202.058c8.94 0 16.3 1.087 22.1 3.261 5.92 2.053 10.33 5.132 13.22 9.238 3.02 4.106 4.53 9.298 4.53 15.578 0 6.158-1.39 11.532-4.16 16.121-2.78 4.468-7.13 7.97-13.05 10.506-5.91 2.415-13.52 3.623-22.82 3.623h-44.92v-97.633h19.2v39.306h25.9Zm20.65 28.801c0-5.313-1.93-8.936-5.8-10.868-3.74-2.053-9.17-3.079-16.3-3.079h-24.45v28.982h24.81c6.4 0 11.6-1.148 15.58-3.442 4.11-2.294 6.16-6.159 6.16-11.593ZM2200.1 162.752v39.669h48.18v-39.669h19.2v97.633h-19.2v-42.568h-48.18v42.568h-19.2v-97.633h19.2ZM2297.47 260.385v-97.633h19.2v39.306h21.56c8.93 0 16.3 1.087 22.1 3.261 5.79 2.053 10.08 5.132 12.86 9.238 2.77 4.106 4.16 9.298 4.16 15.578 0 6.158-1.39 11.532-4.16 16.121-2.66 4.468-6.89 7.97-12.68 10.506-5.68 2.415-13.17 3.623-22.46 3.623h-40.58Zm39.13-14.491c6.4 0 11.59-1.087 15.58-3.261 4.1-2.294 6.15-6.219 6.15-11.774 0-5.313-1.87-8.936-5.61-10.868-3.75-2.053-9.12-3.079-16.12-3.079h-19.93v28.982h19.93Zm56.33 14.491v-97.633h19.2v97.633h-19.2ZM2525.49 121.815c-.48 6.158-2.05 11.411-4.71 15.759-2.53 4.226-6.46 7.487-11.77 9.781-5.19 2.174-12.02 3.26-20.47 3.26-8.69 0-15.64-1.086-20.83-3.26-5.07-2.294-8.76-5.555-11.05-9.781-2.29-4.227-3.68-9.48-4.17-15.759h17.57c.61 6.641 2.3 11.049 5.08 13.223 2.89 2.173 7.48 3.26 13.76 3.26 5.44 0 9.78-1.147 13.04-3.441 3.26-2.416 5.2-6.763 5.8-13.042h17.75Zm-65.03 94.191c0 1.449-.06 3.321-.18 5.615-.12 2.295-.24 4.71-.36 7.246-.12 2.415-.3 4.709-.54 6.883-.12 2.053-.24 3.683-.37 4.891l50.18-77.889h23.37v97.633h-18.12v-51.987c0-2.294.06-5.132.18-8.513.12-3.381.25-6.642.37-9.782.24-3.26.42-5.736.54-7.426l-49.81 77.708h-23.55v-97.633h18.29v53.254ZM780.313 342.802c10.264.845 19.08 3.441 26.446 7.789 7.366 4.226 13.042 9.902 17.027 17.027 3.985 7.124 5.977 15.517 5.977 25.178 0 9.54-1.932 17.932-5.796 25.178-3.864 7.124-9.48 12.86-16.846 17.208-7.245 4.226-16.181 6.762-26.808 7.608v42.204h-18.295V442.79c-10.144-.967-18.959-3.563-26.446-7.789-7.366-4.227-13.102-9.903-17.208-17.027-3.985-7.246-5.978-15.638-5.978-25.178 0-9.782 1.933-18.295 5.797-25.541 3.864-7.245 9.479-12.921 16.846-17.027 7.487-4.226 16.604-6.702 27.351-7.426v-38.945h17.933v38.945Zm-17.933 15.215c-6.762.725-12.377 2.597-16.845 5.616-4.468 2.898-7.789 6.822-9.963 11.774-2.174 4.83-3.26 10.626-3.26 17.389 0 6.641 1.086 12.438 3.26 17.389 2.174 4.951 5.495 8.936 9.963 11.955 4.468 2.898 10.083 4.709 16.845 5.434v-69.557Zm17.933 69.557c6.762-.845 12.317-2.717 16.665-5.615 4.347-2.898 7.607-6.823 9.781-11.774 2.174-4.951 3.26-10.748 3.26-17.389 0-6.763-1.147-12.559-3.441-17.389-2.174-4.952-5.434-8.876-9.782-11.774-4.347-2.899-9.841-4.71-16.483-5.434v69.375ZM940.253 392.615c0 8.09-1.087 15.275-3.261 21.555-2.173 6.279-5.253 11.593-9.238 15.94-3.985 4.347-8.815 7.668-14.491 9.962-5.675 2.174-12.076 3.261-19.2 3.261-6.521 0-12.559-1.087-18.114-3.261-5.555-2.294-10.385-5.615-14.491-9.962-3.985-4.347-7.125-9.661-9.419-15.94-2.294-6.28-3.442-13.525-3.442-21.737 0-10.747 1.812-19.864 5.434-27.351 3.744-7.487 9.057-13.163 15.941-17.027 7.003-3.985 15.215-5.978 24.634-5.978 8.936 0 16.785 1.993 23.548 5.978 6.883 3.864 12.257 9.54 16.121 17.027 3.985 7.487 5.978 16.664 5.978 27.533Zm-71.912 0c0 7.245.906 13.524 2.717 18.838 1.812 5.192 4.649 9.177 8.514 11.955 3.864 2.777 8.815 4.166 14.853 4.166s10.989-1.389 14.853-4.166c3.865-2.778 6.702-6.763 8.514-11.955 1.811-5.314 2.717-11.593 2.717-18.838 0-7.487-.966-13.767-2.898-18.839-1.812-5.072-4.65-8.936-8.514-11.592-3.743-2.778-8.694-4.167-14.853-4.167-9.057 0-15.638 3.019-19.744 9.057s-6.159 14.552-6.159 25.541ZM983.794 343.889v39.669h48.186v-39.669h19.2v97.633h-19.2v-42.568h-48.186v42.568h-19.201v-97.633h19.201ZM1158.15 343.889v82.417h14.31v49.45h-17.93v-34.234h-67.39v34.234h-17.75v-49.45h7.79c5.19-7.487 9.54-15.698 13.04-24.635 3.5-8.936 6.16-18.294 7.97-28.076 1.93-9.902 3.08-19.804 3.44-29.706h56.52Zm-39.85 14.853c-.73 7.849-2.06 15.88-3.99 24.091-1.81 8.212-4.16 16.061-7.06 23.548-2.78 7.487-6.1 14.129-9.96 19.925h42.02v-67.564h-21.01Z" fill="#000"/></svg>