<svg width="333" height="512" viewBox="0 0 333 512" xmlns="http://www.w3.org/2000/svg">
  <path d="M240.907 381.454C236.905 378.012 232.194 373.923 227.511 370.559C262.648 363.727 280.216 355.963 310.983 339.815C314.33 337.909 317.492 335.744 320.434 333.345C337.463 318.956 336.385 294.035 320.888 278.999C312.122 271.326 300.429 267.057 288.277 267.095C277.719 267.613 267.814 272.271 258.845 277.11C234.748 290.05 207.019 296.416 179.233 298.952C134.049 301.876 104.078 293.103 69.8488 275.661C58.6235 269.55 45.2559 267.596 32.498 270.201C22.6857 271.932 14.0175 277.12 8.37323 284.641C-5.25015 302.756 -2.41182 325.737 18.08 338.987C42.1196 354.669 76.9159 364.374 105.61 372.629C89.8581 389.011 60.653 414.035 43.1697 429.925C35.2904 436.501 27.8595 443.51 20.9182 450.913C15.1747 457.856 12.3289 466.437 12.8906 475.119C13.4522 483.801 17.3844 492.017 23.9834 498.297C41.9776 515.351 69.6217 517.059 88.1835 500.186C110.889 480.259 132.715 459.608 155.222 439.526C159.593 435.567 165.213 430.391 168.647 427.415C194.474 449.412 219.734 471.875 245.278 494.312C249.836 498.469 254.958 502.079 260.519 505.051C280.16 514.911 305.25 510.641 317.284 493.458C328.636 477.464 327.842 457.745 312.373 443.9C288.76 423.041 264.635 402.442 240.907 381.454Z"/>
  <path d="M118.082 257.28C195.48 281.554 280.314 245.323 307.561 176.356C334.808 107.389 294.164 31.8227 216.738 7.5483C139.312 -16.7261 54.5065 19.4785 27.2597 88.4457C0.0129534 157.413 40.6844 233.005 118.082 257.28ZM109.369 114.195C115.043 100.354 126.442 89.0928 141.119 82.8274C155.796 76.5619 172.581 75.7917 187.874 80.682C195.421 82.9572 202.394 86.582 208.386 91.3444C214.378 96.1068 219.268 101.911 222.77 108.418C226.272 114.924 228.315 122.002 228.78 129.237C229.246 136.473 228.124 143.72 225.48 150.555C219.827 164.415 208.439 175.702 193.762 181.992C179.084 188.282 162.286 189.074 146.975 184.198C139.416 181.917 132.432 178.285 126.433 173.512C120.434 168.739 115.539 162.922 112.037 156.403C108.534 149.883 106.494 142.792 106.036 135.544C105.578 128.297 106.711 121.038 109.369 114.195Z"/>
</svg>
