<svg width="683" height="512" viewBox="0 0 683 512" xmlns="http://www.w3.org/2000/svg">
  <path d="M678.104 113.06C678.104 53.0637 633.973 4.79973 579.443 4.79973C505.58 1.33326 430.251 0 353.322 0C349.322 0 345.322 0 341.323 0C337.323 0 333.323 0 329.323 0C252.528 0 177.065 1.33326 103.203 4.79973C48.8056 4.79973 4.67473 53.3304 4.67473 113.327C1.34158 160.791 -0.125003 208.255 0.00832325 255.719C-0.125003 303.183 1.34158 350.647 4.5414 398.245C4.5414 458.241 48.6723 506.905 103.069 506.905C180.665 510.505 260.26 512.105 341.189 511.972C422.251 512.238 501.58 510.638 579.309 506.905C633.84 506.905 677.971 458.241 677.971 398.245C681.17 350.647 682.637 303.183 682.504 255.586C682.77 208.122 681.304 160.658 678.104 113.06ZM275.993 386.512V124.526L469.316 255.452L275.993 386.512Z"/>
</svg>
