<svg xmlns="http://www.w3.org/2000/svg" xmlns:xlink="http://www.w3.org/1999/xlink"><symbol id="icon__arrow--down" viewBox="0 0 24 24"><path fill-rule="evenodd" clip-rule="evenodd" d="M7.47 9.47a.75.75 0 011.06 0L12 12.94l3.47-3.47a.75.75 0 111.06 1.06l-4 4a.75.75 0 01-1.06 0l-4-4a.75.75 0 010-1.06z" fill="#3C3C43" fill-opacity=".92"/></symbol><symbol id="icon__arrow" viewBox="0 0 724 512"><path fill-rule="evenodd" clip-rule="evenodd" d="M275.137 4.999c6.665 6.665 6.665 17.47 0 24.136L65.339 238.933h641.464c9.425 0 17.066 7.641 17.066 17.067s-7.641 17.067-17.066 17.067H65.338l209.799 209.798c6.665 6.665 6.665 17.471 0 24.136-6.665 6.665-17.471 6.665-24.136 0L0 256 251.001 4.999c6.665-6.665 17.471-6.665 24.136 0z"/></symbol><symbol id="icon__default" viewBox="0 0 48 48"><path fill="#f7df1e" d="M6 42V6h36v36H6z"/><path fill="#000001" d="M29.538 32.947c.692 1.124 1.444 2.201 3.037 2.201 1.338 0 2.04-.665 2.04-1.585 0-1.101-.726-1.492-2.198-2.133l-.807-.344c-2.329-.988-3.878-2.226-3.878-4.841 0-2.41 1.845-4.244 4.728-4.244 2.053 0 3.528.711 4.592 2.573l-2.514 1.607c-.553-.988-1.151-1.377-2.078-1.377-.946 0-1.545.597-1.545 1.377 0 .964.6 1.354 1.985 1.951l.807.344C36.452 29.645 38 30.839 38 33.523 38 36.415 35.716 38 32.65 38c-2.999 0-4.702-1.505-5.65-3.368l2.538-1.685zm-11.586.082c.506.906 1.275 1.603 2.381 1.603 1.058 0 1.667-.418 1.667-2.043V22h3.333v11.101c0 3.367-1.953 4.899-4.805 4.899-2.577 0-4.437-1.746-5.195-3.368l2.619-1.603z"/></symbol><symbol id="icon__heart-1" viewBox="0 0 615 512"><path d="M307.628 512h-.771a14.978 14.978 0 01-8.566-2.675c-8.174-5.721-202.169-141.304-273.633-255.718l-.282-.468C8.41 227.137-.019 197.358 0 167.008 0 74.892 76.457 0 170.414 0c26.595-.014 52.823 6.077 76.585 17.784 23.762 11.708 44.396 28.707 60.25 49.636 15.853-20.924 36.484-37.92 60.24-49.628C391.246 6.085 417.469-.008 444.06 0 538.004 0 614.4 74.892 614.4 167.032c.024 30.35-8.404 60.131-24.376 86.131a4.722 4.722 0 01-.282.468c-71.403 114.378-265.361 249.973-273.584 255.694a14.887 14.887 0 01-8.566 2.675h.036z"/></symbol><symbol id="icon__heart" viewBox="0 0 593 512"><path d="M296.834 512h-.744a14.101 14.101 0 01-8.265-2.675c-7.888-5.721-195.075-141.304-264.032-255.718l-.272-.468C8.114 227.137-.019 197.358 0 167.008 0 74.892 73.775 0 164.434 0c25.662-.014 50.97 6.077 73.898 17.784 22.525 11.502 42.137 28.11 57.324 48.534.404.544 1.22.544 1.624 0 15.187-20.42 34.795-37.024 57.315-48.526C377.518 6.085 402.821-.008 428.479 0c90.647 0 164.363 74.892 164.363 167.032.024 30.35-8.109 60.131-23.521 86.131a4.824 4.824 0 01-.271.468c-68.899 114.378-256.051 249.973-263.986 255.694a14.014 14.014 0 01-8.265 2.675h.035z" fill-opacity=".1"/><path d="M296.721 444.63h-.541a10.162 10.162 0 01-6.011-1.971c-5.736-4.215-141.873-104.119-192.023-188.423l-.198-.345c-11.205-19.16-17.12-41.102-17.106-63.465 0-67.875 53.654-123.059 119.588-123.059 18.663-.01 37.07 4.478 53.744 13.104 16.675 8.627 31.155 21.153 42.281 36.574 11.125-15.418 25.603-27.941 42.274-36.568 16.671-8.626 35.074-13.116 53.734-13.11C458.388 67.367 512 122.551 512 190.444c.017 22.363-5.898 44.306-17.106 63.465-.06.118-.126.233-.198.344-50.108 84.278-186.219 184.191-191.989 188.406a10.106 10.106 0 01-6.011 1.971h.025z" fill-opacity=".3"/><path d="M296.646 390.735h-.406a7.876 7.876 0 01-4.508-1.407c-4.303-3.012-106.405-74.371-144.018-134.589l-.148-.246c-8.404-13.686-12.84-29.359-12.83-45.332 0-48.482 40.241-87.899 89.692-87.899a91.115 91.115 0 0140.308 9.36c12.506 6.162 23.366 15.109 31.71 26.124 8.344-11.013 19.202-19.958 31.706-26.12a91.122 91.122 0 0140.3-9.364c49.444 0 89.653 39.417 89.653 87.912.013 15.973-4.423 31.647-12.83 45.332a2.672 2.672 0 01-.148.246c-37.581 60.198-139.664 131.564-143.992 134.576a7.835 7.835 0 01-4.508 1.407h.019z"/></symbol><symbol id="logotype" viewBox="0 0 539 512"><path d="M269.174 0l63.544 195.567h205.631L371.99 316.433 435.533 512 269.174 391.133 102.815 512l63.544-195.567L0 195.567h205.631L269.174 0z"/></symbol><symbol id="logotype_full"><path d="M269.174 0l63.544 195.567h205.631L371.99 316.433 435.533 512 269.174 391.133 102.815 512l63.544-195.567L0 195.567h205.631L269.174 0z" fill="#F2A84F"/><path d="M720.357 260.385V131.053h78.251v16.845h-58.689v36.409h16.665c12.8 0 22.823 1.63 30.069 4.891 7.366 3.26 12.559 7.728 15.577 13.404 3.14 5.555 4.71 11.955 4.71 19.2 0 7.97-1.691 14.854-5.072 20.65-3.26 5.796-8.453 10.264-15.578 13.404-7.124 3.019-16.483 4.529-28.076 4.529h-37.857zm36.408-16.484c10.627 0 18.295-1.751 23.004-5.253 4.71-3.623 7.065-9.238 7.065-16.846 0-5.313-1.147-9.479-3.442-12.498-2.294-3.019-5.857-5.193-10.687-6.521-4.709-1.328-10.928-1.993-18.657-1.993h-14.129v43.111h16.846zm152.349 16.484h-19.382v-82.237H862.2c-1.208 14.974-2.717 27.835-4.529 38.582-1.69 10.627-3.924 19.261-6.702 25.903-2.657 6.642-5.977 11.532-9.962 14.672-3.865 3.019-8.514 4.529-13.948 4.529-1.932 0-3.804-.182-5.615-.544-1.812-.241-3.381-.664-4.71-1.268V245.35c.846.242 1.751.483 2.717.725 1.087.12 2.174.181 3.261.181 2.415 0 4.589-.966 6.521-2.898 2.053-1.933 3.864-4.951 5.434-9.057 1.69-4.106 3.2-9.419 4.528-15.94 1.449-6.642 2.657-14.552 3.623-23.729 1.087-9.178 2.053-19.805 2.898-31.88h63.398v97.633zm67.864-99.445c12.318 0 21.495 2.717 27.532 8.151 6.04 5.314 9.06 13.706 9.06 25.178v66.116h-13.587l-3.804-13.586h-.725c-2.777 3.502-5.675 6.4-8.694 8.695-2.899 2.294-6.28 3.985-10.144 5.072-3.744 1.086-8.332 1.63-13.766 1.63-5.797 0-11.05-1.027-15.759-3.079-4.589-2.174-8.212-5.435-10.869-9.782-2.656-4.468-3.985-10.023-3.985-16.664 0-9.903 3.744-17.45 11.231-22.643 7.608-5.192 19.14-8.03 34.597-8.513l16.665-.543v-5.435c0-7.245-1.631-12.317-4.891-15.215-3.261-2.898-7.849-4.347-13.767-4.347-5.071 0-9.902.724-14.49 2.173-4.589 1.449-8.937 3.2-13.042 5.253l-6.159-13.947c4.589-2.415 9.842-4.408 15.759-5.978 6.038-1.69 12.317-2.536 18.838-2.536zm4.529 52.892c-11.11.483-18.839 2.355-23.186 5.616-4.226 3.139-6.34 7.607-6.34 13.404 0 5.072 1.51 8.755 4.529 11.049 3.139 2.294 7.064 3.442 11.774 3.442 7.607 0 13.887-2.114 18.838-6.34 4.951-4.227 7.427-10.566 7.427-19.02v-8.513l-13.042.362zm123.573-51.08v15.396h-42.75v82.237h-19.2v-97.633h61.95zm103.16 48.726c0 8.09-1.08 15.275-3.26 21.555-2.17 6.279-5.25 11.593-9.23 15.94-3.99 4.347-8.82 7.668-14.5 9.962-5.67 2.174-12.07 3.261-19.2 3.261-6.52 0-12.56-1.087-18.11-3.261-5.55-2.294-10.39-5.615-14.49-9.962-3.99-4.347-7.13-9.661-9.42-15.94-2.29-6.28-3.44-13.525-3.44-21.737 0-10.747 1.81-19.864 5.43-27.351 3.75-7.487 9.06-13.163 15.94-17.027 7.01-3.985 15.22-5.978 24.64-5.978 8.93 0 16.78 1.993 23.54 5.978 6.89 3.864 12.26 9.54 16.13 17.027 3.98 7.487 5.97 16.664 5.97 27.533zm-71.91 0c0 7.245.91 13.524 2.72 18.838 1.81 5.192 4.65 9.177 8.51 11.955 3.87 2.777 8.82 4.166 14.86 4.166 6.03 0 10.98-1.389 14.85-4.166 3.86-2.778 6.7-6.763 8.51-11.955 1.81-5.314 2.72-11.593 2.72-18.838 0-7.487-.97-13.767-2.9-18.839-1.81-5.072-4.65-8.936-8.51-11.593-3.75-2.777-8.7-4.166-14.86-4.166-9.05 0-15.63 3.019-19.74 9.057-4.1 6.038-6.16 14.552-6.16 25.541zm165.85-33.33h-31.88v82.237h-19.02v-82.237h-31.7v-15.396h82.6v15.396zm99.99 9.419c0 5.918-1.81 10.627-5.43 14.129-3.5 3.381-8.21 5.676-14.13 6.883v.725c6.28.845 11.59 3.079 15.94 6.702 4.47 3.502 6.7 8.695 6.7 15.578 0 4.226-.78 8.091-2.35 11.592-1.57 3.502-3.99 6.582-7.25 9.238-3.26 2.536-7.48 4.529-12.68 5.978-5.07 1.328-11.23 1.993-18.47 1.993h-43.29v-97.633h43.29c7.12 0 13.52.785 19.2 2.354 5.67 1.57 10.14 4.167 13.4 7.789 3.38 3.623 5.07 8.514 5.07 14.672zm-16.84 43.654c0-5.071-1.93-8.694-5.8-10.868-3.86-2.294-9.6-3.441-17.21-3.441h-21.91v28.982h22.28c7.12 0 12.68-1.087 16.66-3.261 3.99-2.294 5.98-6.098 5.98-11.412zm-2.72-41.48c0-4.226-1.51-7.306-4.53-9.238-3.02-1.932-7.91-2.898-14.67-2.898h-23v24.635h20.1c7.25 0 12.74-.967 16.49-2.899 3.74-2.053 5.61-5.253 5.61-9.6zm131.83 21.737c0 8.09-1.08 15.275-3.26 21.555-2.17 6.279-5.25 11.593-9.24 15.94-3.98 4.347-8.81 7.668-14.49 9.962-5.67 2.174-12.07 3.261-19.2 3.261-6.52 0-12.56-1.087-18.11-3.261-5.56-2.294-10.39-5.615-14.49-9.962-3.99-4.347-7.13-9.661-9.42-15.94-2.3-6.28-3.44-13.525-3.44-21.737 0-10.747 1.81-19.864 5.43-27.351 3.75-7.487 9.06-13.163 15.94-17.027 7.01-3.985 15.22-5.978 24.64-5.978 8.93 0 16.78 1.993 23.54 5.978 6.89 3.864 12.26 9.54 16.13 17.027 3.98 7.487 5.97 16.664 5.97 27.533zm-71.91 0c0 7.245.91 13.524 2.72 18.838 1.81 5.192 4.65 9.177 8.51 11.955 3.87 2.777 8.82 4.166 14.86 4.166 6.03 0 10.98-1.389 14.85-4.166 3.86-2.778 6.7-6.763 8.51-11.955 1.81-5.314 2.72-11.593 2.72-18.838 0-7.487-.97-13.767-2.9-18.839-1.81-5.072-4.65-8.936-8.51-11.593-3.75-2.777-8.7-4.166-14.86-4.166-9.05 0-15.63 3.019-19.74 9.057-4.11 6.038-6.16 14.552-6.16 25.541zm144.98-50.538c11.71 0 21.13 4.227 28.26 12.68 7.24 8.453 10.86 21.072 10.86 37.858 0 10.988-1.63 20.287-4.89 27.895-3.26 7.607-7.85 13.343-13.76 17.208-5.92 3.743-12.8 5.615-20.65 5.615-4.95 0-9.3-.604-13.04-1.811-3.75-1.329-6.95-3.019-9.6-5.072-2.54-2.174-4.77-4.468-6.71-6.884h-1.26c.36 2.174.66 4.77.9 7.789.24 2.899.36 5.495.36 7.789v39.85h-19.2V162.752h15.58l2.72 13.042h.9c1.94-2.657 4.23-5.133 6.89-7.427 2.65-2.295 5.85-4.106 9.6-5.434 3.74-1.329 8.09-1.993 13.04-1.993zm-4.53 15.759c-6.04 0-10.87 1.208-14.49 3.623-3.62 2.294-6.28 5.796-7.97 10.506-1.57 4.589-2.42 10.445-2.54 17.57v2.898c0 7.487.79 13.888 2.36 19.201 1.57 5.192 4.16 9.178 7.79 11.955 3.74 2.657 8.81 3.985 15.21 3.985 5.44 0 9.84-1.449 13.23-4.347 3.5-3.019 6.09-7.185 7.78-12.499 1.7-5.313 2.54-11.472 2.54-18.476 0-10.626-1.93-19.019-5.8-25.178-3.86-6.158-9.9-9.238-18.11-9.238zm86.42 39.307c0 1.449-.06 3.321-.18 5.615-.12 2.295-.24 4.71-.36 7.246-.12 2.415-.3 4.709-.54 6.883-.12 2.053-.24 3.683-.36 4.891l50.17-77.889h23.37v97.633h-18.12v-51.987c0-2.294.06-5.132.18-8.513.13-3.381.25-6.642.37-9.782.24-3.26.42-5.736.54-7.426l-49.81 77.708h-23.55v-97.633h18.29v53.254zm173.72-37.858h-31.88v82.237h-19.02v-82.237h-31.7v-15.396h82.6v15.396zm55.65-17.208c8.58 0 15.94 1.812 22.1 5.434 6.16 3.502 10.87 8.574 14.13 15.216 3.38 6.642 5.07 14.491 5.07 23.548v10.506h-65.57c.24 10.023 2.84 17.691 7.79 23.004 5.07 5.313 12.14 7.97 21.19 7.97 6.28 0 11.84-.543 16.67-1.63 4.95-1.208 10.02-2.959 15.21-5.253v15.94a73.777 73.777 0 01-14.85 4.891c-4.95 1.086-10.87 1.63-17.75 1.63-9.42 0-17.75-1.872-25-5.615-7.24-3.744-12.92-9.299-17.03-16.665-3.98-7.487-5.97-16.665-5.97-27.533 0-10.989 1.81-20.287 5.43-27.895 3.74-7.608 8.88-13.404 15.4-17.389 6.64-4.106 14.37-6.159 23.18-6.159zm0 14.854c-6.88 0-12.43 2.234-16.66 6.702-4.11 4.468-6.52 10.807-7.25 19.019h46.01c0-5.072-.78-9.54-2.35-13.404-1.57-3.864-3.99-6.883-7.25-9.057-3.26-2.174-7.42-3.26-12.5-3.26zm143.51 84.591h-19.38v-82.237h-27.53c-1.21 14.974-2.72 27.835-4.53 38.582-1.69 10.627-3.93 19.261-6.7 25.903-2.66 6.642-5.98 11.532-9.97 14.672-3.86 3.019-8.51 4.529-13.94 4.529-1.94 0-3.81-.182-5.62-.544-1.81-.241-3.38-.664-4.71-1.268V245.35c.85.242 1.75.483 2.72.725 1.09.12 2.17.181 3.26.181 2.41 0 4.59-.966 6.52-2.898 2.05-1.933 3.86-4.951 5.43-9.057 1.7-4.106 3.2-9.419 4.53-15.94 1.45-6.642 2.66-14.552 3.63-23.729 1.08-9.178 2.05-19.805 2.89-31.88h63.4v97.633zm75.11-58.327c8.94 0 16.3 1.087 22.1 3.261 5.92 2.053 10.33 5.132 13.22 9.238 3.02 4.106 4.53 9.298 4.53 15.578 0 6.158-1.39 11.532-4.16 16.121-2.78 4.468-7.13 7.97-13.05 10.506-5.91 2.415-13.52 3.623-22.82 3.623h-44.92v-97.633h19.2v39.306h25.9zm20.65 28.801c0-5.313-1.93-8.936-5.8-10.868-3.74-2.053-9.17-3.079-16.3-3.079h-24.45v28.982h24.81c6.4 0 11.6-1.148 15.58-3.442 4.11-2.294 6.16-6.159 6.16-11.593zm62.06-68.107v39.669h48.18v-39.669h19.2v97.633h-19.2v-42.568h-48.18v42.568h-19.2v-97.633h19.2zm97.37 97.633v-97.633h19.2v39.306h21.56c8.93 0 16.3 1.087 22.1 3.261 5.79 2.053 10.08 5.132 12.86 9.238 2.77 4.106 4.16 9.298 4.16 15.578 0 6.158-1.39 11.532-4.16 16.121-2.66 4.468-6.89 7.97-12.68 10.506-5.68 2.415-13.17 3.623-22.46 3.623h-40.58zm39.13-14.491c6.4 0 11.59-1.087 15.58-3.261 4.1-2.294 6.15-6.219 6.15-11.774 0-5.313-1.87-8.936-5.61-10.868-3.75-2.053-9.12-3.079-16.12-3.079h-19.93v28.982h19.93zm56.33 14.491v-97.633h19.2v97.633h-19.2zm132.56-138.57c-.48 6.158-2.05 11.411-4.71 15.759-2.53 4.226-6.46 7.487-11.77 9.781-5.19 2.174-12.02 3.26-20.47 3.26-8.69 0-15.64-1.086-20.83-3.26-5.07-2.294-8.76-5.555-11.05-9.781-2.29-4.227-3.68-9.48-4.17-15.759h17.57c.61 6.641 2.3 11.049 5.08 13.223 2.89 2.173 7.48 3.26 13.76 3.26 5.44 0 9.78-1.147 13.04-3.441 3.26-2.416 5.2-6.763 5.8-13.042h17.75zm-65.03 94.191c0 1.449-.06 3.321-.18 5.615-.12 2.295-.24 4.71-.36 7.246-.12 2.415-.3 4.709-.54 6.883-.12 2.053-.24 3.683-.37 4.891l50.18-77.889h23.37v97.633h-18.12v-51.987c0-2.294.06-5.132.18-8.513.12-3.381.25-6.642.37-9.782.24-3.26.42-5.736.54-7.426l-49.81 77.708h-23.55v-97.633h18.29v53.254zM780.313 342.802c10.264.845 19.08 3.441 26.446 7.789 7.366 4.226 13.042 9.902 17.027 17.027 3.985 7.124 5.977 15.517 5.977 25.178 0 9.54-1.932 17.932-5.796 25.178-3.864 7.124-9.48 12.86-16.846 17.208-7.245 4.226-16.181 6.762-26.808 7.608v42.204h-18.295V442.79c-10.144-.967-18.959-3.563-26.446-7.789-7.366-4.227-13.102-9.903-17.208-17.027-3.985-7.246-5.978-15.638-5.978-25.178 0-9.782 1.933-18.295 5.797-25.541 3.864-7.245 9.479-12.921 16.846-17.027 7.487-4.226 16.604-6.702 27.351-7.426v-38.945h17.933v38.945zm-17.933 15.215c-6.762.725-12.377 2.597-16.845 5.616-4.468 2.898-7.789 6.822-9.963 11.774-2.174 4.83-3.26 10.626-3.26 17.389 0 6.641 1.086 12.438 3.26 17.389 2.174 4.951 5.495 8.936 9.963 11.955 4.468 2.898 10.083 4.709 16.845 5.434v-69.557zm17.933 69.557c6.762-.845 12.317-2.717 16.665-5.615 4.347-2.898 7.607-6.823 9.781-11.774 2.174-4.951 3.26-10.748 3.26-17.389 0-6.763-1.147-12.559-3.441-17.389-2.174-4.952-5.434-8.876-9.782-11.774-4.347-2.899-9.841-4.71-16.483-5.434v69.375zm159.94-34.959c0 8.09-1.087 15.275-3.261 21.555-2.173 6.279-5.253 11.593-9.238 15.94-3.985 4.347-8.815 7.668-14.491 9.962-5.675 2.174-12.076 3.261-19.2 3.261-6.521 0-12.559-1.087-18.114-3.261-5.555-2.294-10.385-5.615-14.491-9.962-3.985-4.347-7.125-9.661-9.419-15.94-2.294-6.28-3.442-13.525-3.442-21.737 0-10.747 1.812-19.864 5.434-27.351 3.744-7.487 9.057-13.163 15.941-17.027 7.003-3.985 15.215-5.978 24.634-5.978 8.936 0 16.785 1.993 23.548 5.978 6.883 3.864 12.257 9.54 16.121 17.027 3.985 7.487 5.978 16.664 5.978 27.533zm-71.912 0c0 7.245.906 13.524 2.717 18.838 1.812 5.192 4.649 9.177 8.514 11.955 3.864 2.777 8.815 4.166 14.853 4.166s10.989-1.389 14.853-4.166c3.865-2.778 6.702-6.763 8.514-11.955 1.811-5.314 2.717-11.593 2.717-18.838 0-7.487-.966-13.767-2.898-18.839-1.812-5.072-4.65-8.936-8.514-11.592-3.743-2.778-8.694-4.167-14.853-4.167-9.057 0-15.638 3.019-19.744 9.057s-6.159 14.552-6.159 25.541zm115.453-48.726v39.669h48.186v-39.669h19.2v97.633h-19.2v-42.568h-48.186v42.568h-19.201v-97.633h19.201zm174.356 0v82.417h14.31v49.45h-17.93v-34.234h-67.39v34.234h-17.75v-49.45h7.79c5.19-7.487 9.54-15.698 13.04-24.635 3.5-8.936 6.16-18.294 7.97-28.076 1.93-9.902 3.08-19.804 3.44-29.706h56.52zm-39.85 14.853c-.73 7.849-2.06 15.88-3.99 24.091-1.81 8.212-4.16 16.061-7.06 23.548-2.78 7.487-6.1 14.129-9.96 19.925h42.02v-67.564h-21.01z" fill="#000"/></symbol><symbol id="logo__default" viewBox="0 0 87 24"><rect x="3" y="3" width="8" height="8" rx="1" fill="#646CFF"/><rect x="12.5" y="2.5" width="9" height="9" rx="4.5" fill="#BD34FE"/><rect x="3" y="13" width="8" height="8" rx="1" fill="#646CFF"/><rect x="13" y="13" width="8" height="8" rx="1" fill="#646CFF"/><path d="M33.148 18V6.364h4.454c.841 0 1.54.132 2.097.397.56.262.979.62 1.256 1.074.28.455.42.97.42 1.546 0 .473-.09.878-.273 1.216a2.294 2.294 0 01-.733.812c-.306.208-.65.358-1.028.449v.114c.413.022.809.15 1.187.38.383.227.696.55.938.966.242.417.364.92.364 1.511 0 .603-.146 1.144-.438 1.625-.292.478-.731.855-1.318 1.131-.587.277-1.326.415-2.216.415h-4.71zm2.108-1.761h2.267c.765 0 1.316-.146 1.653-.438.341-.295.511-.674.511-1.136a1.74 1.74 0 00-.982-1.591c-.315-.163-.69-.245-1.125-.245h-2.324v3.41zm0-4.927h2.085c.364 0 .691-.066.983-.198.291-.137.52-.328.687-.574.17-.25.256-.546.256-.887 0-.45-.159-.822-.477-1.113-.315-.292-.782-.438-1.404-.438h-2.13v3.21zm13.879 3.018V9.272h2.057V18h-1.995v-1.551h-.09c-.197.488-.521.888-.972 1.199-.447.31-.998.466-1.654.466-.571 0-1.077-.127-1.517-.381a2.646 2.646 0 01-1.022-1.12c-.246-.492-.37-1.086-.37-1.784V9.273h2.057v5.238c0 .553.152.993.455 1.319.303.325.7.488 1.193.488.303 0 .597-.074.88-.221a1.79 1.79 0 00.7-.66c.185-.295.278-.664.278-1.107zM53.307 18V9.273h2.057V18h-2.057zm1.034-9.966a1.2 1.2 0 01-.841-.324 1.044 1.044 0 01-.352-.79c0-.31.117-.573.352-.79.235-.219.515-.329.84-.329.33 0 .61.11.842.33.235.216.352.479.352.79 0 .306-.117.57-.352.79a1.187 1.187 0 01-.841.323zm5.194-1.67V18H57.48V6.364h2.056zm5.354 11.79c-.685 0-1.299-.177-1.84-.529-.542-.352-.97-.864-1.285-1.534-.314-.67-.471-1.485-.471-2.443 0-.97.159-1.788.477-2.455.322-.67.756-1.176 1.301-1.517a3.344 3.344 0 011.824-.517c.511 0 .932.087 1.261.261.33.17.591.377.784.62.194.238.343.464.45.676h.084V6.364h2.063V18h-2.023v-1.375h-.125c-.106.212-.26.438-.46.676-.2.235-.466.436-.796.602-.329.167-.744.25-1.244.25zm.574-1.688c.436 0 .807-.117 1.114-.352.306-.239.54-.57.699-.995.159-.424.238-.918.238-1.483 0-.564-.08-1.055-.238-1.471-.156-.417-.387-.74-.694-.972-.303-.23-.676-.346-1.119-.346-.458 0-.84.119-1.148.357-.306.24-.537.569-.693.99-.155.42-.233.9-.233 1.442 0 .546.078 1.033.233 1.46.16.425.392.76.699 1.006.31.243.691.364 1.142.364zm10.13 1.704c-.876 0-1.631-.181-2.268-.545a3.694 3.694 0 01-1.46-1.557c-.34-.674-.511-1.468-.511-2.38 0-.898.17-1.686.511-2.364a3.866 3.866 0 011.443-1.591c.618-.383 1.343-.574 2.176-.574.538 0 1.046.087 1.523.261.481.17.905.436 1.273.796.371.36.663.818.875 1.375.212.553.318 1.212.318 1.977v.63H72.32v-1.386H77.5a2.212 2.212 0 00-.255-1.05c-.167-.311-.4-.556-.7-.734a1.965 1.965 0 00-1.033-.267c-.42 0-.79.103-1.108.307-.318.2-.567.466-.745.796a2.29 2.29 0 00-.266 1.073v1.21c0 .508.092.944.278 1.307.186.36.445.637.778.83.334.19.724.284 1.17.284.3 0 .57-.042.813-.125.243-.087.453-.214.63-.38.179-.167.313-.374.404-.62l1.92.216c-.12.508-.352.95-.692 1.33a3.379 3.379 0 01-1.296.875c-.526.204-1.129.306-1.807.306zm5.62-.17V9.273h1.994v1.454h.091c.16-.504.432-.892.819-1.165.39-.276.835-.414 1.335-.414.113 0 .24.005.38.017.144.007.264.02.358.04v1.892a2.167 2.167 0 00-.414-.08 3.82 3.82 0 00-.54-.04 2.08 2.08 0 00-1.012.245c-.295.159-.528.38-.698.664-.17.285-.256.612-.256.983V18h-2.057z" fill="CurrentColor" fill-opacity=".92"/></symbol><symbol id="logo__ok" viewBox="0 0 333 512"><path d="M240.907 381.454c-4.002-3.442-8.713-7.531-13.396-10.895 35.137-6.832 52.705-14.596 83.472-30.744a68.917 68.917 0 009.451-6.47c17.029-14.389 15.951-39.31.454-54.346-8.766-7.673-20.459-11.942-32.611-11.904-10.558.518-20.463 5.176-29.432 10.015-24.097 12.94-51.826 19.306-79.612 21.842-45.184 2.924-75.155-5.849-109.384-23.291-11.226-6.111-24.593-8.065-37.351-5.46-9.812 1.731-18.48 6.919-24.125 14.44-13.623 18.115-10.785 41.096 9.707 54.346 24.04 15.682 58.836 25.387 87.53 33.642-15.752 16.382-44.957 41.406-62.44 57.296a250.69 250.69 0 00-22.252 20.988c-5.743 6.943-8.59 15.524-8.027 24.206.561 8.682 4.493 16.898 11.092 23.178 17.995 17.054 45.639 18.762 64.2 1.889 22.706-19.927 44.532-40.578 67.039-60.66 4.371-3.959 9.991-9.135 13.425-12.111 25.827 21.997 51.087 44.46 76.631 66.897a75.217 75.217 0 0015.241 10.739c19.641 9.86 44.731 5.59 56.765-11.593 11.352-15.994 10.558-35.713-4.911-49.558-23.613-20.859-47.738-41.458-71.466-62.446z"/><path d="M118.082 257.28c77.398 24.274 162.232-11.957 189.479-80.924 27.247-68.967-13.397-144.533-90.823-168.808C139.312-16.726 54.507 19.478 27.26 88.446.013 157.413 40.684 233.005 118.082 257.28zm-8.713-143.085c5.674-13.841 17.073-25.102 31.75-31.368 14.677-6.265 31.462-7.035 46.755-2.145 7.547 2.275 14.52 5.9 20.512 10.662 5.992 4.763 10.882 10.567 14.384 17.074 3.502 6.506 5.545 13.584 6.01 20.819.466 7.236-.656 14.483-3.3 21.318-5.653 13.86-17.041 25.147-31.718 31.437-14.678 6.29-31.476 7.082-46.787 2.206-7.559-2.281-14.543-5.913-20.542-10.686-5.999-4.773-10.894-10.59-14.396-17.109-3.503-6.52-5.543-13.611-6.001-20.859-.458-7.247.675-14.506 3.333-21.349z"/></symbol><symbol id="logo__telegram" viewBox="0 0 611 512"><path d="M608.771 46.61l-92.13 434.483c-6.95 30.665-25.077 38.297-50.835 23.851L325.431 401.502l-67.735 65.145c-7.496 7.496-13.765 13.765-28.211 13.765l10.085-142.965 260.172-235.095c11.311-10.085-2.454-15.673-17.581-5.588L160.524 299.288 22.056 255.948c-30.12-9.404-30.664-30.12 6.27-44.566L569.928 2.727c25.077-9.404 47.019 5.587 38.842 43.884z"/></symbol><symbol id="logo__vk" viewBox="0 0 821 512"><path d="M446.908 512C166.564 512 6.663 319.808 0 0h140.428c4.613 234.731 108.138 334.158 190.14 354.659V0h132.233v202.442C543.778 193.73 628.845 101.477 657.546 0h132.231c-22.038 125.053-114.291 217.305-179.892 255.231C675.486 285.982 780.556 366.446 820.532 512H674.974c-31.264-97.377-109.158-172.717-212.173-182.967V512h-15.893z"/></symbol><symbol id="logo__youtube" viewBox="0 0 683 512"><path d="M678.104 113.06c0-59.996-44.131-108.26-98.661-108.26C505.58 1.333 430.251 0 353.322 0H329.323c-76.795 0-152.258 1.333-226.12 4.8-54.397 0-98.528 48.53-98.528 108.527-3.333 47.464-4.8 94.928-4.667 142.392-.133 47.464 1.334 94.928 4.533 142.526 0 59.996 44.131 108.66 98.528 108.66 77.596 3.6 157.191 5.2 238.12 5.067 81.062.266 160.391-1.334 238.12-5.067 54.531 0 98.662-48.664 98.662-108.66 3.199-47.598 4.666-95.062 4.533-142.659a1959.39 1959.39 0 00-4.4-142.526zM275.993 386.512V124.526l193.323 130.926-193.323 131.06z"/></symbol><view id="icon__arrow--down-view" viewBox="0 0 24 24"/>
<use href="#icon__arrow--down" width="24" height="24" x="0" y="0"/>

<view id="icon__default-view" viewBox="0 80 24 24"/>
<use href="#icon__default" width="24" height="24" x="0" y="80"/>
</svg>